#!OML:ASF H:\Dans Jumps\Project 1\Capture day 1\Session 1\subject.ASF
:FULLY-SPECIFIED
:DEGREES
383
root 0.123348 17.2424 -7.94527 11.2503 -0.626075 -0.0159891
lowerback 9.80307 0.308401 -0.821943
upperback 7.17463 0.336115 1.59798
thorax 1.94936 0.100694 2.08887
lowerneck -14.9125 -0.168516 -1.38901
upperneck 30.9928 -0.0202213 0.544667
head 12.7978 -0.0972908 0.448855
rclavicle -2.38542e-015 -3.18055e-015
rhumerus -56.7858 -33.4368 -37.9349
rradius 16.4506
rwrist 54.5737
rhand -15.7491 -24.4659
rfingers 7.12502
rthumb 10.4422 -54.1865
lclavicle -2.38542e-015 -3.18055e-015
lhumerus -47.9099 16.1698 58.2826
lradius 9.86031
lwrist -12.9643
lhand -17.2781 3.00831
lfingers 7.12502
lthumb 8.96697 32.7977
rfemur -32.0249 -2.86611 18.007
rtibia 39.1354
rfoot -17.1178 -1.30033
rtoes 8.09733
lfemur -30.4325 5.32036 -19.3458
ltibia 34.4762
lfoot -14.4032 4.81489
ltoes -0.485438
384
root 0.122563 17.2475 -7.94334 11.3381 -0.66303 -0.0352695
lowerback 9.82461 0.303198 -0.78676
upperback 7.17145 0.331605 1.60465
thorax 1.93455 0.0996246 2.07627
lowerneck -14.9388 -0.157625 -1.38548
upperneck 31.0008 -0.0134542 0.56862
head 12.8066 -0.0909614 0.458517
rclavicle 1.78906e-015 -2.78299e-015
rhumerus -57.011 -33.3855 -38.0036
rradius 16.467
rwrist 54.2439
rhand -15.6204 -24.4368
rfingers 7.12502
rthumb 10.5663 -54.1512
lclavicle 1.78906e-015 -2.78299e-015
lhumerus -47.745 16.0933 58.5667
lradius 9.94561
lwrist -11.9908
lhand -17.7334 2.79092
lfingers 7.12502
lthumb 8.52758 32.5987
rfemur -32.0255 -2.73478 18.0116
rtibia 38.9721
rfoot -17.0531 -1.36997
rtoes 8.00119
lfemur -30.4662 5.36853 -19.3349
ltibia 34.3772
lfoot -14.3752 4.80243
ltoes -0.484723
385
root 0.121482 17.2521 -7.94144 11.4291 -0.689209 -0.0658026
lowerback 9.83829 0.295472 -0.740022
upperback 7.16053 0.324731 1.61082
thorax 1.91601 0.0978888 2.05681
lowerneck -14.9606 -0.148775 -1.37705
upperneck 31.0134 -0.0123234 0.596183
head 12.8163 -0.0860776 0.467884
rclavicle -7.95139e-016 -6.75868e-015
rhumerus -57.146 -33.2959 -38.2128
rradius 16.4876
rwrist 53.8653
rhand -15.4891 -24.4033
rfingers 7.12502
rthumb 10.693 -54.1112
lclavicle -7.95139e-016 -6.75868e-015
lhumerus -47.5371 16.0305 58.8674
lradius 10.0395
lwrist -11.0768
lhand -18.1727 2.56922
lfingers 7.12502
lthumb 8.10363 32.3938
rfemur -32.0341 -2.62513 18.0341
rtibia 38.8181
rfoot -16.9916 -1.42526
rtoes 7.90771
lfemur -30.5164 5.43341 -19.3148
ltibia 34.2978
lfoot -14.3608 4.77693
ltoes -0.519129
386
root 0.120109 17.2562 -7.93955 11.5218 -0.704854 -0.100537
lowerback 9.84455 0.284586 -0.691256
upperback 7.14541 0.313932 1.61588
thorax 1.89726 0.0943227 2.03538
lowerneck -14.9812 -0.142299 -1.3657
upperneck 31.0251 -0.0159771 0.62519
head 12.8256 -0.082762 0.476576
rclavicle -2.38542e-015 -1.43125e-014
rhumerus -57.2032 -33.1993 -38.5238
rradius 16.508
rwrist 53.5065
rhand -15.3635 -24.3589
rfingers 7.12502
rthumb 10.8141 -54.0605
lclavicle -2.38542e-015 -1.43125e-014
lhumerus -47.2982 15.9818 59.1782
lradius 10.1591
lwrist -10.2505
lhand -18.6498 2.28546
lfingers 7.12502
lthumb 7.64322 32.1273
rfemur -32.0502 -2.5398 18.067
rtibia 38.6745
rfoot -16.933 -1.46472
rtoes 7.82771
lfemur -30.5787 5.50541 -19.2921
ltibia 34.2335
lfoot -14.3542 4.7447
ltoes -0.576765
387
root 0.118509 17.26 -7.9376 11.6171 -0.712675 -0.139481
lowerback 9.83948 0.270708 -0.643352
upperback 7.12845 0.299167 1.6214
thorax 1.88291 0.0887112 2.01526
lowerneck -14.9956 -0.137976 -1.35717
upperneck 31.0285 -0.02285 0.656717
head 12.8301 -0.0808352 0.486197
rclavicle 1.59028e-015 9.14409e-015
rhumerus -57.1876 -33.1102 -38.914
rradius 16.5269
rwrist 53.2029
rhand -15.2473 -24.2779
rfingers 7.12502
rthumb 10.9263 -53.9736
lclavicle 1.59028e-015 9.14409e-015
lhumerus -47.0111 15.8457 59.6128
lradius 10.3197
lwrist -9.36686
lhand -19.2103 1.91808
lfingers 7.12502
lthumb 7.10216 31.7789
rfemur -32.0759 -2.47912 18.1096
rtibia 38.5435
rfoot -16.8783 -1.48415
rtoes 7.78347
lfemur -30.6512 5.57951 -19.2662
ltibia 34.1808
lfoot -14.3505 4.70703
ltoes -0.629272
388
root 0.116728 17.2636 -7.93552 11.7107 -0.716096 -0.181121
lowerback 9.82769 0.255347 -0.597132
upperback 7.11145 0.282333 1.62643
thorax 1.87224 0.0819868 1.99577
lowerneck -14.9944 -0.135966 -1.35384
upperneck 31.0136 -0.032321 0.690063
head 12.8237 -0.080361 0.496919
rclavicle -1.39149e-015 -6.36111e-015
rhumerus -57.0977 -33.0136 -39.3977
rradius 16.5574
rwrist 52.9321
rhand -15.1412 -24.1591
rfingers 7.12502
rthumb 11.0286 -53.8494
lclavicle -1.39149e-015 -6.36111e-015
lhumerus -46.6784 15.6069 60.1798
lradius 10.5258
lwrist -8.40525
lhand -19.8891 1.42455
lfingers 7.12502
lthumb 6.44684 31.3064
rfemur -32.1088 -2.44191 18.16
rtibia 38.4274
rfoot -16.8277 -1.48098
rtoes 7.77877
lfemur -30.7268 5.65034 -19.2373
ltibia 34.1371
lfoot -14.3434 4.66625
ltoes -0.644976
389
root 0.114879 17.2668 -7.93328 11.7979 -0.722125 -0.21862
lowerback 9.81369 0.240578 -0.561521
upperback 7.09687 0.265479 1.6304
thorax 1.8653 0.0748509 1.98116
lowerneck -14.9887 -0.134112 -1.35097
upperneck 30.988 -0.0399122 0.717286
head 12.8119 -0.0798933 0.505583
rclavicle 2.38542e-015 -3.97569e-016
rhumerus -56.9481 -32.9357 -39.9343
rradius 16.5951
rwrist 52.7241
rhand -15.0287 -23.9969
rfingers 7.12502
rthumb 11.1371 -53.6813
lclavicle 2.38542e-015 -3.97569e-016
lhumerus -46.3081 15.2888 60.8549
lradius 10.7685
lwrist -7.3818
lhand -20.6619 0.808134
lfingers 7.12502
lthumb 5.70082 30.7114
rfemur -32.1452 -2.42577 18.2093
rtibia 38.3279
rfoot -16.7812 -1.45308
rtoes 7.81311
lfemur -30.798 5.71529 -19.2124
ltibia 34.0994
lfoot -14.3258 4.6261
ltoes -0.604927
390
root 0.113075 17.2696 -7.93079 11.8732 -0.736175 -0.251246
lowerback 9.80397 0.228842 -0.535651
upperback 7.08478 0.251896 1.63212
thorax 1.85848 0.0690258 1.96943
lowerneck -14.976 -0.132164 -1.34688
upperneck 30.9528 -0.0447407 0.735233
head 12.7946 -0.0792571 0.510814
rclavicle -2.18663e-015 -1.15295e-014
rhumerus -56.7336 -32.8543 -40.545
rradius 16.6452
rwrist 52.5182
rhand -14.9116 -23.8102
rfingers 7.12502
rthumb 11.2501 -53.4886
lclavicle -2.18663e-015 -1.15295e-014
lhumerus -45.9075 14.8921 61.6282
lradius 11.0493
lwrist -6.28326
lhand -21.5675 0.0262239
lfingers 7.12502
lthumb 4.82637 29.9513
rfemur -32.1801 -2.42664 18.2554
rtibia 38.2462
rfoot -16.7401 -1.39683
rtoes 7.89507
lfemur -30.8561 5.77252 -19.1913
ltibia 34.0657
lfoot -14.2924 4.58947
ltoes -0.488451
391
root 0.111269 17.2723 -7.92771 11.9261 -0.75588 -0.273445
lowerback 9.80872 0.218398 -0.52532
upperback 7.07632 0.238893 1.63161
thorax 1.84753 0.0629873 1.96408
lowerneck -14.9549 -0.129229 -1.3443
upperneck 30.9122 -0.0449316 0.744398
head 12.7732 -0.0779064 0.513582
rclavicle -7.95139e-016 5.1684e-015
rhumerus -56.4633 -32.7728 -41.2092
rradius 16.6974
rwrist 52.3085
rhand -14.8507 -23.5646
rfingers 7.12502
rthumb 11.3088 -53.2397
lclavicle -7.95139e-016 5.1684e-015
lhumerus -45.4887 14.4743 62.4403
lradius 11.3454
lwrist -5.16664
lhand -22.5405 -0.953315
lfingers 7.12502
lthumb 3.88686 28.991
rfemur -32.1983 -2.444 18.2919
rtibia 38.181
rfoot -16.706 -1.31836
rtoes 7.99891
lfemur -30.8865 5.81718 -19.1773
ltibia 34.0328
lfoot -14.2426 4.55911
ltoes -0.295737
392
root 0.109691 17.2745 -7.92444 11.9613 -0.787476 -0.285228
lowerback 9.82524 0.213015 -0.527224
upperback 7.06792 0.231714 1.62597
thorax 1.82999 0.0595742 1.95981
lowerneck -14.9231 -0.124592 -1.33357
upperneck 30.873 -0.0410095 0.740787
head 12.7502 -0.0754771 0.51063
rclavicle -5.96354e-016 -3.18055e-015
rhumerus -56.1484 -32.6962 -41.9152
rradius 16.7486
rwrist 52.0781
rhand -14.7921 -23.3277
rfingers 7.12502
rthumb 11.3653 -52.9998
lclavicle -5.96354e-016 -3.18055e-015
lhumerus -45.0489 14.0141 63.2992
lradius 11.6615
lwrist -4.00294
lhand -23.4833 -1.93499
lfingers 7.12502
lthumb 2.97638 28.024
rfemur -32.2075 -2.47435 18.3178
rtibia 38.1308
rfoot -16.6761 -1.21776
rtoes 8.10588
lfemur -30.8947 5.84825 -19.1715
ltibia 33.9997
lfoot -14.1744 4.54372
ltoes -0.0402423
393
root 0.108393 17.2765 -7.9207 11.9761 -0.828938 -0.28796
lowerback 9.85317 0.211435 -0.539061
upperback 7.05944 0.228859 1.61539
thorax 1.80597 0.0581173 1.95565
lowerneck -14.8831 -0.11856 -1.31735
upperneck 30.8434 -0.0342108 0.729222
head 12.7294 -0.0722215 0.504138
rclavicle 7.95139e-016 1.55052e-014
rhumerus -55.7802 -32.5955 -42.6895
rradius 16.8019
rwrist 51.7894
rhand -14.7556 -23.1162
rfingers 7.12502
rthumb 11.4005 -52.7862
lclavicle 7.95139e-016 1.55052e-014
lhumerus -44.5941 13.5244 64.1867
lradius 12.0028
lwrist -2.78475
lhand -24.2739 -2.78344
lfingers 7.12502
lthumb 2.21286 27.1848
rfemur -32.201 -2.51409 18.3337
rtibia 38.0926
rfoot -16.6534 -1.10176
rtoes 8.19869
lfemur -30.8759 5.86393 -19.1717
ltibia 33.9659
lfoot -14.0946 4.54838
ltoes 0.242187
394
root 0.10737 17.2782 -7.91665 11.9784 -0.881303 -0.28213
lowerback 9.88597 0.213924 -0.560545
upperback 7.04924 0.230682 1.59882
thorax 1.7773 0.0588306 1.95031
lowerneck -14.8428 -0.110463 -1.29087
upperneck 30.8316 -0.0245148 0.708634
head 12.7158 -0.0677418 0.492925
rclavicle -3.77691e-015 9.93923e-015
rhumerus -55.3718 -32.4871 -43.5062
rradius 16.8535
rwrist 51.4793
rhand -14.7354 -22.9517
rfingers 7.12502
rthumb 11.4199 -52.6207
lclavicle -3.77691e-015 9.93923e-015
lhumerus -44.1255 12.9855 65.1098
lradius 12.3794
lwrist -1.49394
lhand -24.9192 -3.46842
lfingers 7.12502
lthumb 1.58961 26.5054
rfemur -32.1874 -2.55772 18.3397
rtibia 38.064
rfoot -16.6351 -0.976982
rtoes 8.26486
lfemur -30.8403 5.8649 -19.178
ltibia 33.9323
lfoot -14.009 4.57955
ltoes 0.515275
